<?xml version="1.0" standalone="no"?>
<!DOCTYPE svg PUBLIC "-//W3C//DTD SVG 20010904//EN"
 "http://www.w3.org/TR/2001/REC-SVG-20010904/DTD/svg10.dtd">
<svg version="1.0" xmlns="http://www.w3.org/2000/svg"
 width="700.000000pt" height="700.000000pt" viewBox="0 0 700.000000 700.000000"
 preserveAspectRatio="xMidYMid meet">
<metadata>
Created by potrace 1.14, written by Peter Selinger 2001-2017
</metadata>
<g transform="translate(0.000000,700.000000) scale(0.100000,-0.100000)"
fill="#000000" stroke="none">
<path d="M1992 6309 c-160 -10 -359 -42 -467 -76 -351 -111 -647 -408 -758
-758 -37 -118 -65 -302 -77 -508 -8 -122 -10 -647 -7 -1597 4 -1543 4 -1531
63 -1768 106 -426 431 -753 853 -858 244 -60 210 -59 1906 -59 1427 0 1560 1
1675 18 350 49 560 146 766 351 235 235 332 481 363 917 14 190 14 2863 1
3054 -19 261 -64 455 -145 615 -142 281 -398 501 -690 593 -114 36 -304 65
-495 77 -196 12 -2791 11 -2988 -1z m2348 -624 c744 -111 1225 -572 1374
-1317 51 -251 51 -258 51 -1599 l0 -1255 -27 -41 c-51 -78 10 -74 -1078 -71
l-965 3 -33 23 c-60 43 -67 68 -70 262 -4 189 12 635 28 820 28 304 80 557
143 693 65 141 178 228 362 279 77 21 99 22 530 24 356 2 466 5 525 17 211 43
315 124 327 255 11 115 -47 211 -146 240 -22 7 -105 12 -195 12 -416 0 -641
73 -722 233 -19 36 -28 76 -35 143 -10 112 -15 133 -46 203 -84 193 -291 320
-623 384 -101 19 -149 22 -400 22 -305 0 -438 -12 -675 -60 -303 -61 -414
-201 -415 -519 0 -155 32 -353 117 -731 237 -1053 271 -1284 280 -1860 4 -330
4 -341 -16 -373 -12 -18 -35 -41 -53 -52 -32 -19 -52 -20 -539 -20 l-506 0
-33 22 c-18 13 -43 36 -54 51 l-21 28 -3 2006 -2 2006 21 43 c12 26 36 53 57
66 l37 23 475 0 c432 0 478 -2 507 -17 47 -26 73 -70 83 -139 15 -106 66 -153
160 -146 47 3 68 12 140 59 262 172 572 272 935 302 96 8 401 -4 505 -19z
m-425 -1097 c64 -34 128 -100 157 -163 32 -71 32 -200 0 -266 -37 -74 -87
-125 -158 -160 -123 -61 -267 -39 -372 56 -148 133 -130 393 35 506 67 46 116
59 208 56 62 -3 91 -9 130 -29z"/>
</g>
</svg>
